name C:\Users\Nicos\Documents\OpenSimProjects\SprintingProject\Study1\PredictiveResults\IC_pred_Sprinting_optimum_27-October-2023__11-55-39___IKTD_Minus_2_p02_maxVel_01.mot
datacolumns 38
datarows 12
range 0.16035633 0.17287909
endheader
                time	/jointset/ground_pelvis/pelvis_tilt/value	/jointset/ground_pelvis/pelvis_list/value	/jointset/ground_pelvis/pelvis_rotation/value	/jointset/ground_pelvis/pelvis_tx/value	/jointset/ground_pelvis/pelvis_ty/value	/jointset/ground_pelvis/pelvis_tz/value	/jointset/hip_r/hip_flexion_r/value	/jointset/hip_r/hip_adduction_r/value	/jointset/hip_r/hip_rotation_r/value	/jointset/knee_r/knee_angle_r/value	/jointset/ankle_r/ankle_angle_r/value	/jointset/subtalar_r/subtalar_angle_r/value	/jointset/mtp_r/mtp_angle_r/value	/jointset/hip_l/hip_flexion_l/value	/jointset/hip_l/hip_adduction_l/value	/jointset/hip_l/hip_rotation_l/value	/jointset/knee_l/knee_angle_l/value	/jointset/ankle_l/ankle_angle_l/value	/jointset/subtalar_l/subtalar_angle_l/value	/jointset/mtp_l/mtp_angle_l/value	/jointset/back/lumbar_extension/value	/jointset/back/lumbar_bending/value	/jointset/back/lumbar_rotation/value	/jointset/acromial_r/arm_flex_r/value	/jointset/acromial_r/arm_add_r/value	/jointset/acromial_r/arm_rot_r/value	/jointset/elbow_r/elbow_flex_r/value	/jointset/radioulnar_r/pro_sup_r/value	/jointset/radius_hand_r/wrist_flex_r/value	/jointset/radius_hand_r/wrist_dev_r/value	/jointset/acromial_l/arm_flex_l/value	/jointset/acromial_l/arm_add_l/value	/jointset/acromial_l/arm_rot_l/value	/jointset/elbow_l/elbow_flex_l/value	/jointset/radioulnar_l/pro_sup_l/value	/jointset/radius_hand_l/wrist_flex_l/value	/jointset/radius_hand_l/wrist_dev_l/value	
          0.16035633	         -9.90652841	          6.37698562	        -14.37350625	          1.24864129	          0.96131488	          0.30658588	         -0.24097340	        -15.78661654	          8.49343740	        -55.16597219	        -30.07050249	        -14.12527860	         -7.63401989	         85.83994823	        -11.20705155	         -0.68887080	        -91.90819156	         -8.91159831	        -23.43160680	         15.66674642	         -9.63514416	         -3.90067839	         10.79801594	         89.17378983	          0.80137976	         -0.00044962	         96.11541184	         83.38199426	        -13.20431906	          7.84990295	        -74.23403737	          0.95536925	         -0.00000378	         74.98203695	         48.71253624	        -14.56328586	          7.85104747	
          0.16100355	         -9.89715114	          6.37735046	        -14.33114092	          1.25598320	          0.96160177	          0.30670575	         -0.24182194	        -15.76148416	          8.56797927	        -55.57387194	        -30.13364546	        -14.01100232	         -7.51192334	         85.74290532	        -11.24569037	         -0.77356124	        -91.11118680	         -9.14278533	        -23.44921041	         15.66676229	         -9.70924461	         -3.97372763	         10.78842176	         89.18467875	          0.75165925	         -0.00121940	         95.85421966	         83.43440536	        -13.18248636	          7.82994647	        -74.12821753	          0.96389414	          0.00000000	         74.45280152	         48.64322310	        -14.66805305	          7.83113814	
          0.16304851	         -9.83844868	          6.37218235	        -14.19722507	          1.27916737	          0.96257272	          0.30709585	         -0.26250110	        -15.67444661	          8.79334971	        -56.86563957	        -30.27934265	        -13.71653267	         -7.15791350	         85.35394977	        -11.35738726	         -1.05601508	        -88.56840556	         -9.85159984	        -23.48034676	         15.66682468	         -9.98130524	         -4.20890641	         10.75995236	         89.16979563	          0.55129948	         -0.00485570	         95.10219082	         83.60825379	        -13.12572175	          7.76689235	        -73.76043781	          0.96389414	         -0.00712197	         72.85240460	         48.44881430	        -15.00626953	          7.76816575	
          0.16453058	         -9.76568077	          6.36076571	        -14.10055606	          1.29596277	          0.96333998	          0.30738791	         -0.29858675	        -15.60409077	          8.94482597	        -57.80186801	        -30.34017401	        -13.58203490	         -6.93987869	         84.99327592	        -11.42793197	         -1.27229475	        -86.70861645	        -10.33889164	        -23.47581288	         15.66683300	        -10.21729186	         -4.38163127	         10.74144432	         89.11232177	          0.36501175	         -0.00602374	         94.62669463	         83.74150035	        -13.09620835	          7.72119424	        -73.46395859	          0.93900359	         -0.02188267	         71.76158004	         48.33276574	        -15.25650971	          7.72248129	
          0.16453058	         -9.76568077	          6.36076571	        -14.10055606	          1.29596277	          0.96333998	          0.30738791	         -0.29858675	        -15.60409077	          8.94482597	        -57.80186801	        -30.34017401	        -13.58203490	         -6.93987869	         84.99327592	        -11.42793197	         -1.27229475	        -86.70861645	        -10.33889164	        -23.47581288	         15.66683300	        -10.21729186	         -4.38163127	         10.74144432	         89.11232177	          0.36501175	         -0.00602374	         94.62669463	         83.74150035	        -13.09620835	          7.72119424	        -73.46395859	          0.93900359	         -0.02188267	         71.76158004	         48.33276574	        -15.25650971	          7.72248129	
          0.16517780	         -9.72535791	          6.35338598	        -14.05860250	          1.30329674	          0.96369228	          0.30751759	         -0.32075955	        -15.57147356	          9.00741973	        -58.21007420	        -30.35651828	        -13.54705974	         -6.85690840	         84.81497139	        -11.45589768	         -1.36915573	        -85.89365305	        -10.54329333	        -23.46586460	         15.66675079	        -10.33117199	         -4.45722443	         10.73407291	         89.07491703	          0.27282998	         -0.00546443	         94.43737670	         83.80148723	        -13.08639260	          7.70123889	        -73.32704818	          0.92172588	         -0.03154267	         71.30360107	         48.28895591	        -15.36672932	          7.70252515	
          0.16722276	         -9.56232794	          6.32072121	        -13.92658924	          1.32647237	          0.96487493	          0.30793214	         -0.41862470	        -15.46282474	          9.18884326	        -59.49483614	        -30.37681961	        -13.52956552	         -6.65424816	         84.16920654	        -11.53043824	         -1.68299957	        -83.31369960	        -11.15086238	        -23.40164410	         15.66662884	        -10.73524866	         -4.69649180	         10.71330822	         88.90683841	         -0.06169003	         -0.00154440	         93.91244121	         83.99721682	        -13.06769012	          7.63818508	        -72.86634275	          0.84173943	         -0.07713287	         69.92980632	         48.17722301	        -15.71837619	          7.63947021	
          0.16870483	         -9.41073642	          6.28908388	        -13.83253467	          1.34327501	          0.96579622	          0.30823606	         -0.51448191	        -15.38056616	          9.30642924	        -60.42063880	        -30.36511487	        -13.58346204	         -6.56936605	         83.62568695	        -11.57109159	         -1.91651357	        -81.44475296	        -11.55219621	        -23.32581468	         15.66673013	        -11.06885574	         -4.87086952	         10.70221305	         88.73648641	         -0.34520971	         -0.00000044	         93.60152974	         84.14456777	        -13.06582023	          7.59248796	        -72.50740665	          0.76028795	         -0.12849297	         69.00368850	         48.12128241	        -15.97583410	          7.59377375	
          0.16870483	         -9.41073642	          6.28908388	        -13.83253467	          1.34327501	          0.96579622	          0.30823606	         -0.51448191	        -15.38056616	          9.30642924	        -60.42063880	        -30.36511487	        -13.58346204	         -6.56936605	         83.62568695	        -11.57109159	         -1.91651357	        -81.44475296	        -11.55219621	        -23.32581468	         15.66673013	        -11.06885574	         -4.87086952	         10.70221305	         88.73648641	         -0.34520971	         -0.00000044	         93.60152974	         84.14456777	        -13.06582023	          7.59248796	        -72.50740665	          0.76028795	         -0.12849297	         69.00368850	         48.12128241	        -15.97583410	          7.59377375	
          0.16935206	         -9.33584958	          6.27338836	        -13.79219741	          1.35061512	          0.96621494	          0.30836944	         -0.56248382	        -15.34414560	          9.35458628	        -60.82341969	        -30.35384515	        -13.61891283	         -6.54969067	         83.36917765	        -11.58530043	         -2.01971525	        -80.63026377	        -11.71656501	        -23.28557071	         15.66678674	        -11.22493678	         -4.94739119	         10.69881193	         88.64903119	         -0.47985273	         -0.00007053	         93.48408608	         84.21028116	        -13.06808197	          7.57253174	        -72.34447124	          0.71867166	         -0.15668460	         68.61758382	         48.10338044	        -16.08878290	          7.57381744	
          0.17139701	         -9.06607301	          6.21759491	        -13.67014796	          1.37381815	          0.96759980	          0.30879444	         -0.73482110	        -15.22876038	          9.49842406	        -62.09056957	        -30.29229110	        -13.74130436	         -6.55870939	         82.48639140	        -11.61750704	         -2.34955608	        -78.06945162	        -12.19045809	        -23.13334487	         15.66684033	        -11.75683814	         -5.19187256	         10.69716101	         88.31871561	         -0.94853298	         -0.01094535	         93.18624389	         84.42241527	        -13.08754562	          7.50947714	        -71.80693643	          0.56462896	         -0.27660363	         67.47088251	         48.07274438	        -16.44695151	          7.51076296	
          0.17287909	         -8.84004695	          6.17178152	        -13.58859593	          1.39064644	          0.96865970	          0.30910647	         -0.87671668	        -15.14556455	          9.59808046	        -63.00426632	        -30.22190741	        -13.81500193	         -6.62771239	         81.78144017	        -11.62998066	         -2.59067269	        -76.23062058	        -12.49031298	        -23.00381280	         15.66680930	        -12.17738637	         -5.37199108	         10.70685528	         88.02698781	         -1.32928461	         -0.03062962	         93.03991715	         84.58015122	        -13.11333607	          7.46378012	        -71.39711554	          0.43247154	         -0.39771219	         66.70934949	         48.07468983	        -16.70716594	          7.46506546	
